<?xml version="1.0" standalone="no"?>
<!DOCTYPE svg PUBLIC "-//W3C//DTD SVG 20010904//EN"
 "http://www.w3.org/TR/2001/REC-SVG-20010904/DTD/svg10.dtd">
<svg version="1.0" xmlns="http://www.w3.org/2000/svg"
 width="300.000000pt" height="225.000000pt" viewBox="0 0 300.000000 225.000000"
 preserveAspectRatio="xMidYMid meet">
<metadata>
Created by potrace 1.10, written by Peter Selinger 2001-2011
</metadata>
<g transform="translate(0.000000,225.000000) scale(0.100000,-0.100000)"
fill="#000000" stroke="none">
<path d="M1240 1125 c0 -317 3 -485 10 -485 7 0 10 168 10 485 0 317 -3 485
-10 485 -7 0 -10 -168 -10 -485z"/>
<path d="M1494 1489 c-22 -76 -27 -109 -19 -109 7 0 15 14 19 30 5 27 9 30 44
30 33 0 39 -4 49 -30 6 -16 18 -30 26 -30 12 0 5 23 -29 94 -24 51 -44 98 -44
104 0 6 -3 13 -8 16 -4 2 -21 -45 -38 -105z m55 4 c1 -7 -8 -13 -19 -13 -23 0
-23 0 -9 37 10 26 12 27 19 8 5 -11 9 -26 9 -32z"/>
<path d="M1834 1489 c-22 -76 -27 -109 -19 -109 7 0 15 14 19 30 5 27 9 30 44
30 33 0 39 -4 49 -30 6 -16 18 -30 26 -30 12 0 5 23 -29 94 -24 51 -44 98 -44
104 0 6 -3 13 -8 16 -4 2 -21 -45 -38 -105z m56 4 c0 -7 -9 -13 -21 -13 -15 0
-19 4 -15 16 3 9 6 23 6 32 1 15 3 14 15 -2 8 -11 15 -26 15 -33z"/>
<path d="M1320 1485 c0 -98 1 -105 20 -105 17 0 20 7 20 45 0 45 0 45 35 45
43 0 70 34 59 74 -8 34 -31 46 -88 46 l-46 0 0 -105z m84 75 c30 -11 36 -54
10 -64 -39 -15 -54 -7 -54 27 0 29 6 47 16 47 1 0 14 -4 28 -10z"/>
<path d="M1650 1479 c0 -78 3 -108 11 -103 7 4 10 29 7 65 -2 33 -1 59 2 59 4
0 26 -27 50 -60 24 -33 50 -60 58 -60 14 0 -4 29 -66 105 l-24 29 31 9 c66 17
43 67 -31 67 l-38 0 0 -111z m75 71 c0 -9 -11 -16 -27 -18 -23 -3 -28 1 -28
18 0 17 5 21 28 18 16 -2 27 -9 27 -18z"/>
<path d="M1990 1485 l0 -105 39 0 c71 0 111 56 96 136 -7 41 -53 74 -102 74
l-33 0 0 -105z m99 59 c32 -40 29 -106 -5 -133 -15 -12 -31 -21 -35 -21 -5 0
-9 41 -9 90 0 99 11 113 49 64z"/>
<path d="M2160 1538 c0 -29 -3 -77 -6 -105 -6 -49 -5 -53 15 -53 20 0 21 5 21
89 0 49 3 96 6 105 4 12 0 16 -15 16 -19 0 -21 -6 -21 -52z"/>
<path d="M2258 1579 c-49 -28 -42 -83 16 -114 19 -11 37 -24 40 -31 12 -30
-35 -47 -79 -29 -18 8 -19 7 -6 -8 8 -11 28 -17 52 -17 30 0 42 5 55 25 22 34
7 69 -40 92 -42 19 -52 41 -31 62 12 12 21 13 45 4 34 -13 51 0 21 16 -24 14
-51 13 -73 0z"/>
<path d="M2377 1584 c-4 -4 -7 -52 -7 -106 l0 -98 65 0 c37 0 65 4 65 10 0 6
-25 10 -55 10 l-55 0 0 46 0 47 55 -6 c31 -3 55 -2 55 4 0 5 -25 9 -55 9 l-55
0 0 36 0 35 53 -2 c28 -1 54 2 57 7 6 11 -112 18 -123 8z"/>
<path d="M682 1514 c-241 -64 -369 -343 -259 -563 16 -30 22 -53 16 -62 -15
-24 -62 -160 -57 -165 3 -2 42 12 87 32 l81 37 56 -27 c160 -78 338 -49 463
75 93 94 136 226 113 350 -44 237 -273 385 -500 323z m262 -59 c75 -38 133
-96 171 -171 27 -54 30 -67 30 -159 -1 -87 -4 -107 -27 -155 -29 -62 -101
-139 -157 -168 -103 -53 -233 -56 -339 -7 -59 26 -67 28 -105 16 -62 -18 -72
-18 -68 -1 24 92 24 95 -3 172 -72 211 11 405 209 487 41 17 67 21 141 18 77
-2 99 -7 148 -32z"/>
<path d="M576 1251 c-25 -27 -26 -210 -1 -247 16 -25 17 -25 140 -22 102 3
127 7 144 22 19 18 21 18 47 -3 33 -26 58 -27 84 -1 17 17 20 33 20 125 0 92
-3 108 -20 125 -11 11 -26 20 -33 20 -8 0 -24 -9 -37 -20 -28 -24 -22 -24 -51
1 -18 15 -32 19 -54 15 -16 -4 -34 -6 -40 -5 -5 0 -48 3 -95 5 -76 5 -88 3
-104 -15z m184 -31 c0 -16 -8 -19 -62 -22 -57 -3 -63 -5 -66 -25 -3 -22 0 -23
57 -23 54 0 61 -2 61 -20 0 -18 -7 -20 -59 -20 -59 0 -60 0 -57 -27 3 -27 5
-28 65 -28 57 0 61 -2 61 -22 0 -22 -4 -23 -85 -23 l-85 0 0 115 0 115 85 0
c78 0 85 -2 85 -20z m129 -60 c23 -44 44 -80 46 -80 2 0 1 36 -2 80 l-6 80 27
0 26 0 0 -116 0 -115 -26 3 c-22 2 -35 18 -70 83 l-44 80 0 -82 c0 -82 0 -83
-25 -83 l-25 0 1 115 0 115 28 0 c24 0 32 -10 70 -80z"/>
<path d="M1493 1353 c-9 -3 -13 -35 -13 -109 0 -94 2 -104 18 -104 16 0 18 7
14 55 -2 30 -1 55 2 55 4 0 18 -25 32 -55 20 -42 31 -55 47 -55 21 0 22 4 22
110 l0 111 -25 -3 c-16 -2 -27 -11 -31 -28 -4 -14 -7 -20 -8 -13 -1 13 -29 43
-39 42 -4 0 -13 -3 -19 -6z m85 -82 c6 -37 -11 -43 -41 -15 -32 29 -28 44 11
41 20 -2 28 -8 30 -26z"/>
<path d="M1320 1245 l0 -105 60 0 c53 0 60 2 60 20 0 17 -7 20 -50 20 -38 0
-50 4 -50 15 0 11 11 15 40 15 29 0 40 4 40 15 0 11 -11 15 -40 15 -38 0 -40
2 -40 30 0 29 1 30 50 30 47 0 50 2 50 25 0 24 -3 25 -60 25 l-60 0 0 -105z"/>
<path d="M1679 1331 c-21 -17 -24 -28 -24 -84 0 -75 20 -107 66 -107 26 0 59
22 59 40 0 5 3 15 6 24 5 13 -2 16 -40 16 -25 0 -46 -4 -46 -10 0 -5 14 -10
30 -10 35 0 39 -14 9 -31 -34 -18 -64 19 -63 77 1 58 24 85 55 65 27 -16 49 0
29 24 -17 21 -53 19 -81 -4z"/>
<path d="M1811 1245 l-2 -105 76 0 75 0 0 30 c0 30 0 30 -60 30 l-60 0 0 75
c0 56 -3 75 -14 75 -10 0 -14 -24 -15 -105z"/>
<path d="M1980 1245 c0 -98 1 -105 20 -105 19 0 20 7 20 105 0 98 -1 105 -20
105 -19 0 -20 -7 -20 -105z"/>
<path d="M2070 1330 c-35 -35 -22 -75 35 -109 39 -23 45 -45 15 -61 -14 -8
-26 -8 -41 0 -24 13 -41 4 -19 -10 22 -14 73 -12 94 3 12 9 17 23 14 47 -2 29
-10 38 -43 56 -68 35 -53 93 16 67 30 -12 37 -5 17 15 -19 19 -66 14 -88 -8z"/>
<path d="M2210 1261 c0 -49 -3 -96 -6 -105 -5 -13 1 -16 25 -16 30 0 31 1 31
45 0 38 3 45 20 45 17 0 20 -7 20 -45 0 -42 2 -45 28 -45 l27 0 2 105 c1 105
1 105 -23 105 -21 0 -24 -4 -24 -39 0 -33 -3 -39 -25 -43 -24 -5 -25 -3 -25
38 0 40 -2 44 -25 44 -25 0 -25 -1 -25 -89z"/>
<path d="M1663 1113 c-9 -3 -13 -35 -13 -109 0 -100 1 -104 21 -104 20 0 21 3
15 56 -8 65 1 64 34 -5 18 -40 29 -51 47 -51 23 0 23 1 23 111 l0 110 -27 -3
c-23 -2 -27 -7 -25 -25 2 -13 -2 -23 -7 -23 -6 0 -11 7 -11 15 0 12 -31 37
-42 34 -2 0 -9 -3 -15 -6z m87 -90 c0 -39 -6 -41 -37 -11 -32 30 -29 47 7 46
27 -1 30 -4 30 -35z"/>
<path d="M2216 1110 c-22 -65 -56 -203 -51 -208 8 -8 25 19 25 41 0 13 9 17
41 17 36 0 41 -3 50 -30 6 -16 17 -30 25 -30 19 0 18 2 -13 63 -14 29 -36 77
-49 107 -13 33 -24 49 -28 40z m34 -102 c0 -5 -9 -8 -20 -8 -20 0 -25 15 -13
45 5 15 8 14 19 -6 7 -13 13 -27 14 -31z"/>
<path d="M1322 1005 l0 -105 69 0 c39 0 69 4 69 10 0 6 -18 10 -40 10 l-40 0
0 95 0 95 -28 0 -29 0 -1 -105z"/>
<path d="M1496 1015 c-29 -104 -30 -115 -17 -115 5 0 12 14 16 30 6 27 10 30
45 30 33 0 39 -4 49 -30 5 -16 17 -30 25 -30 11 0 3 24 -30 95 -24 52 -44 99
-44 105 0 5 -4 10 -9 10 -4 0 -20 -43 -35 -95z m53 -2 c1 -7 -8 -13 -19 -13
-23 0 -23 0 -9 37 10 26 12 27 19 8 5 -11 9 -26 9 -32z"/>
<path d="M1850 1090 c-25 -25 -34 -61 -27 -107 10 -56 32 -83 71 -83 37 0 51
12 61 53 7 27 6 27 -39 27 -25 0 -46 -4 -46 -10 0 -5 14 -10 30 -10 35 0 39
-14 8 -31 -18 -10 -24 -8 -40 11 -20 25 -24 90 -8 121 12 21 46 26 53 7 4 -10
7 -10 17 -1 11 10 11 15 0 28 -17 21 -56 19 -80 -5z"/>
<path d="M1986 1024 c2 -94 9 -110 60 -120 59 -11 93 46 94 159 0 46 -1 47
-30 47 l-29 0 -3 -72 c-2 -57 -6 -73 -18 -73 -12 0 -16 16 -18 73 -3 71 -3 72
-30 72 l-27 0 1 -86z"/>
<path d="M2361 1084 c-15 -19 -21 -41 -21 -79 0 -64 27 -105 69 -105 33 0 61
27 61 58 0 19 -6 22 -40 22 -22 0 -40 -4 -40 -10 0 -5 14 -10 30 -10 34 0 39
-14 11 -30 -28 -15 -48 -3 -61 36 -22 65 11 131 52 105 30 -18 51 4 24 25 -30
21 -62 17 -85 -12z"/>
<path d="M2495 1098 c-2 -7 -3 -53 -2 -103 l2 -90 68 -3 c42 -2 67 1 67 8 0 6
-25 10 -60 10 l-60 0 0 46 0 46 55 -4 c42 -4 55 -1 55 9 0 11 -12 13 -55 9
l-55 -5 0 34 0 35 60 0 c33 0 60 4 60 10 0 15 -130 13 -135 -2z"/>
<path d="M1911 871 c-39 -10 -66 -56 -64 -108 3 -77 45 -115 109 -99 49 13 69
101 36 165 -19 38 -44 51 -81 42z m39 -21 c29 -16 43 -79 28 -126 -11 -32 -18
-40 -41 -42 -44 -5 -67 22 -67 78 0 33 6 55 21 74 23 29 31 31 59 16z"/>
<path d="M2077 860 c-69 -55 -45 -200 34 -200 41 0 58 9 74 41 30 57 8 151
-40 169 -35 13 -38 13 -68 -10z m63 -10 c26 -14 40 -70 30 -116 -10 -41 -23
-54 -61 -54 -53 0 -73 109 -29 155 26 28 33 29 60 15z"/>
<path d="M1342 854 c-28 -19 -28 -59 0 -82 12 -9 33 -28 47 -41 24 -23 24 -24
6 -37 -16 -12 -22 -12 -42 1 -29 19 -47 11 -33 -14 13 -26 64 -34 106 -16 29
12 34 19 34 48 0 34 -26 67 -63 80 -22 8 -33 35 -19 49 7 7 18 5 35 -7 24 -16
47 -14 47 4 0 11 -47 31 -73 31 -13 0 -33 -7 -45 -16z"/>
<path d="M1509 849 c-18 -18 -21 -30 -17 -86 5 -74 27 -103 78 -103 28 0 75
43 65 60 -8 12 -44 19 -51 9 -3 -5 -12 -9 -20 -9 -10 0 -14 13 -14 48 0 55 7
67 27 50 22 -18 51 15 33 36 -18 23 -76 20 -101 -5z"/>
<path d="M1666 839 c-3 -17 -6 -65 -6 -105 l0 -74 30 0 c29 0 30 2 30 45 0 38
3 45 20 45 17 0 20 -7 20 -45 0 -41 2 -45 25 -45 25 0 25 1 25 83 0 45 3 92 6
105 6 19 3 22 -26 22 -31 0 -32 -1 -28 -40 3 -36 1 -40 -19 -40 -20 0 -23 5
-23 40 0 35 -3 40 -24 40 -18 0 -25 -7 -30 -31z"/>
<path d="M2230 765 l0 -105 75 0 75 0 0 30 0 30 -65 0 -66 0 7 75 c6 66 5 75
-10 75 -14 0 -16 -14 -16 -105z"/>
</g>
</svg>
